<?xml version="1.0" encoding="utf-8"?><!-- Uploaded to: SVG Repo, www.svgrepo.com, Generator: SVG Repo Mixer Tools -->
<svg fill="#000000" width="800px" height="800px" viewBox="0 0 24 24" id="pi" data-name="Flat Color" xmlns="http://www.w3.org/2000/svg" class="icon flat-color"><path id="primary" d="M6,22a1,1,0,0,1-.71-.29,1,1,0,0,1,0-1.42A5.79,5.79,0,0,0,7,16.17V4A1,1,0,0,1,9,4V16.17a7.78,7.78,0,0,1-2.29,5.54A1,1,0,0,1,6,22Zm14-1a1,1,0,0,0-1-1,2,2,0,0,1-2-2V4a1,1,0,0,0-2,0V18a4,4,0,0,0,4,4A1,1,0,0,0,20,21Z" style="fill: rgb(0, 0, 0);"></path><path id="secondary" d="M4,7a1,1,0,0,1-.46-.11,1,1,0,0,1-.43-1.33A5.31,5.31,0,0,1,8,3h7c1.68,0,3.59,0,4.29-.71a1,1,0,1,1,1.42,1.42C19.41,5,17.17,5,15,5H8A3.38,3.38,0,0,0,4.89,6.46,1,1,0,0,1,4,7Z" style="fill: rgb(44, 169, 188);"></path></svg>